<?xml version="1.0" standalone="no"?>
<!DOCTYPE svg PUBLIC "-//W3C//DTD SVG 20010904//EN"
 "http://www.w3.org/TR/2001/REC-SVG-20010904/DTD/svg10.dtd">
<svg version="1.0" xmlns="http://www.w3.org/2000/svg"
 width="300.000000pt" height="100.000000pt" viewBox="0 0 300.000000 100.000000"
 preserveAspectRatio="xMidYMid meet">

<g transform="translate(0.000000,100.000000) scale(0.100000,-0.100000)"
fill="#000000" stroke="none">
<path d="M680 610 l0 -120 25 0 c18 0 25 5 25 20 0 26 18 25 46 -1 14 -13 32
-19 49 -17 l27 3 -21 27 c-17 22 -19 28 -8 35 20 12 37 47 37 78 0 59 -51 95
-136 95 l-44 0 0 -120z m118 58 c7 -7 12 -24 12 -38 0 -34 -17 -50 -52 -50
-27 0 -28 2 -28 50 0 48 1 50 28 50 15 0 33 -5 40 -12z"/>
<path d="M899 726 c-2 -2 -3 -56 -1 -120 l3 -116 70 0 c62 0 69 2 69 19 0 17
-8 20 -47 23 -44 3 -48 5 -51 31 -3 26 -2 27 42 27 42 0 46 2 46 25 0 23 -4
25 -45 25 -38 0 -45 3 -45 20 0 17 7 20 40 20 36 0 40 3 40 25 0 24 -3 25 -58
25 -32 0 -61 -2 -63 -4z"/>
<path d="M1126 711 c-37 -25 -55 -57 -56 -99 0 -72 50 -122 122 -122 50 0 82
19 103 60 58 112 -66 229 -169 161z m114 -51 c45 -45 2 -140 -58 -126 -86 21
-79 146 8 146 17 0 39 -9 50 -20z"/>
<path d="M1350 611 l0 -121 25 0 c24 0 25 2 25 71 l0 71 34 -26 c19 -14 38
-26 41 -26 3 0 22 12 41 26 l34 26 0 -71 c0 -69 1 -71 25 -71 l25 0 0 121 0
120 -59 -45 c-33 -25 -62 -46 -66 -46 -4 0 -33 21 -66 46 l-59 45 0 -120z"/>
<path d="M1650 610 l0 -120 70 0 c63 0 70 2 70 20 0 17 -7 20 -45 20 -43 0
-45 1 -45 29 0 28 3 30 43 33 34 2 42 7 42 23 0 16 -8 21 -42 23 -35 3 -43 7
-43 23 0 15 7 19 35 19 31 0 35 3 35 25 0 24 -3 25 -60 25 l-60 0 0 -120z"/>
<path d="M1830 610 l0 -120 25 0 c18 0 25 5 25 20 0 11 6 20 13 20 8 0 22 -9
32 -20 10 -12 31 -20 48 -20 l30 0 -23 25 -23 24 27 31 c63 75 6 160 -108 160
l-46 0 0 -120z m122 45 c17 -38 -3 -75 -42 -75 -29 0 -30 1 -30 50 0 49 1 50
30 50 23 0 33 -6 42 -25z"/>
<path d="M2190 717 c-32 -16 -70 -73 -70 -104 0 -69 57 -123 130 -123 34 0 48
6 76 34 39 39 45 74 14 71 -11 -1 -27 -11 -36 -23 -35 -51 -99 -49 -123 4 -16
35 -14 48 10 78 24 30 72 35 100 10 14 -12 22 -13 39 -4 17 9 19 14 9 26 -33
41 -102 55 -149 31z"/>
<path d="M2465 720 c-61 -25 -89 -102 -60 -164 47 -98 195 -84 224 21 27 95
-72 182 -164 143z m97 -57 c11 -10 18 -30 18 -54 0 -71 -77 -101 -122 -47 -24
27 -23 59 3 92 24 31 72 35 101 9z"/>
<path d="M2670 611 l0 -121 25 0 c23 0 24 3 27 70 l3 70 37 -26 37 -27 35 27
35 26 3 -67 c3 -62 5 -68 26 -71 22 -3 22 -2 22 117 l0 121 -60 -47 -60 -46
-33 23 c-17 13 -47 35 -64 48 l-33 24 0 -121z"/>
<path d="M2045 520 c-4 -7 -3 -16 3 -22 14 -14 45 -2 40 15 -6 16 -34 21 -43
7z"/>
<path d="M467 429 c-26 -4 -81 -21 -122 -38 -92 -39 -145 -40 -211 -5 -42 23
-47 23 -31 6 57 -63 148 -68 280 -15 76 30 105 37 169 37 42 1 75 2 73 4 -9
10 -116 17 -158 11z"/>
<path d="M690 369 c0 -31 4 -48 10 -44 6 3 10 15 10 26 0 10 7 19 15 19 21 0
19 18 -2 23 -17 4 -17 5 0 6 27 2 20 21 -8 21 -23 0 -25 -3 -25 -51z"/>
<path d="M760 369 c0 -31 4 -48 10 -44 6 3 10 26 10 51 0 24 -4 44 -10 44 -5
0 -10 -23 -10 -51z"/>
<path d="M800 370 c0 -51 13 -61 22 -17 3 18 4 18 30 -2 14 -12 28 -21 30 -21
2 0 2 20 0 45 -4 48 -22 63 -22 18 l0 -27 -30 29 -30 29 0 -54z"/>
<path d="M902 373 c3 -47 4 -48 33 -45 38 5 55 19 55 46 0 31 -19 46 -58 46
l-33 0 3 -47z m66 1 c2 -13 -4 -24 -13 -28 -24 -9 -35 1 -35 30 0 21 4 25 23
22 13 -2 23 -11 25 -24z"/>
<path d="M1063 406 c10 -8 17 -26 17 -45 0 -17 5 -31 10 -31 6 0 10 16 10 35
0 19 5 35 10 35 6 0 10 5 10 10 0 6 -17 10 -37 10 -34 -1 -36 -2 -20 -14z"/>
<path d="M1140 369 c0 -31 4 -48 10 -44 6 3 10 15 10 26 0 12 7 19 20 19 13 0
20 -7 20 -20 0 -11 5 -20 10 -20 6 0 10 20 10 45 0 25 -4 45 -10 45 -5 0 -10
-7 -10 -15 0 -8 -9 -15 -20 -15 -11 0 -20 7 -20 15 0 8 -4 15 -10 15 -5 0 -10
-23 -10 -51z"/>
<path d="M1242 373 c3 -40 6 -47 26 -48 13 -1 25 2 28 7 3 4 -4 8 -15 8 -28 0
-27 28 2 33 22 4 22 4 -3 15 -18 8 -20 11 -7 11 27 1 20 21 -9 21 -24 0 -25
-2 -22 -47z"/>
<path d="M1370 376 c0 -44 1 -46 29 -46 33 0 40 12 32 55 -5 24 -12 31 -34 33
-26 3 -27 2 -27 -42z m42 -21 c0 -5 -5 -11 -11 -13 -6 -2 -11 4 -11 13 0 9 5
15 11 13 6 -2 11 -8 11 -13z"/>
<path d="M1450 376 c0 -51 5 -56 40 -45 24 7 24 7 3 8 -13 1 -23 7 -23 15 0 8
10 16 23 19 22 4 22 4 -3 15 -18 8 -20 11 -7 11 27 1 20 21 -8 21 -23 0 -25
-4 -25 -44z"/>
<path d="M1524 405 c-7 -18 3 -35 22 -35 8 0 14 -7 14 -16 0 -10 -6 -14 -15
-11 -8 4 -17 2 -20 -2 -7 -12 21 -22 40 -15 23 9 18 49 -7 62 -18 8 -19 11 -5
11 24 1 21 21 -3 21 -11 0 -23 -7 -26 -15z"/>
<path d="M1590 410 c0 -5 7 -10 16 -10 11 0 15 -8 13 -32 -2 -18 1 -33 6 -33
6 0 10 15 10 33 0 19 5 32 13 32 6 0 12 5 12 10 0 6 -16 10 -35 10 -19 0 -35
-4 -35 -10z"/>
<path d="M1730 370 l0 -50 33 19 c17 10 33 25 35 35 5 24 -16 46 -44 46 -22 0
-24 -4 -24 -50z m45 10 c0 -7 -6 -15 -12 -17 -8 -3 -13 4 -13 17 0 13 5 20 13
18 6 -3 12 -11 12 -18z"/>
<path d="M1810 376 c0 -42 14 -70 22 -45 3 9 10 9 27 0 18 -10 22 -10 20 1 -2
7 1 23 5 36 10 30 -9 52 -45 52 -28 0 -29 -2 -29 -44z m55 4 c0 -8 -8 -16 -17
-18 -13 -2 -18 3 -18 18 0 15 5 20 18 18 9 -2 17 -10 17 -18z"/>
<path d="M1912 408 c-35 -35 14 -102 57 -79 45 25 33 91 -17 91 -16 0 -33 -5
-40 -12z m62 -25 c9 -21 -16 -46 -37 -37 -17 6 -23 35 -10 47 12 13 41 7 47
-10z"/>
<path d="M2010 376 c0 -25 5 -48 10 -51 6 -3 10 -2 10 3 0 6 12 13 26 16 21 6
25 11 22 39 -3 28 -7 32 -35 35 -33 3 -33 3 -33 -42z m50 4 c0 -11 -7 -20 -15
-20 -8 0 -15 9 -15 20 0 11 7 20 15 20 8 0 15 -9 15 -20z"/>
<path d="M2102 373 c3 -40 6 -47 26 -48 13 -1 25 2 28 7 3 4 -4 8 -15 8 -28 0
-27 28 2 33 22 4 22 4 -3 15 -18 8 -20 11 -7 11 27 1 20 21 -9 21 -24 0 -25
-2 -22 -47z"/>
<path d="M2170 376 c0 -43 14 -69 23 -44 4 10 7 11 18 1 7 -7 17 -13 22 -13 5
0 7 6 4 13 -2 6 0 20 5 30 14 27 -8 57 -42 57 -29 0 -30 -2 -30 -44z m55 4 c0
-8 -8 -16 -17 -18 -13 -2 -18 3 -18 18 0 15 5 20 18 18 9 -2 17 -10 17 -18z"/>
<path d="M2263 406 c11 -8 17 -27 17 -50 0 -22 4 -35 10 -31 6 3 10 22 10 41
0 19 5 34 10 34 6 0 10 5 10 10 0 6 -17 10 -37 10 -34 -1 -36 -2 -20 -14z"/>
<path d="M2347 388 c10 -18 21 -42 24 -53 l6 -20 7 20 c4 11 14 33 22 49 19
37 10 46 -14 16 l-19 -24 -12 22 c-6 12 -16 22 -22 22 -5 0 -2 -15 8 -32z"/>
<path d="M2490 375 c0 -25 5 -45 10 -45 6 0 10 9 10 20 0 13 7 20 20 20 13 0
20 -7 20 -19 0 -11 5 -23 10 -26 6 -4 10 13 10 44 0 28 -4 51 -10 51 -5 0 -10
-7 -10 -15 0 -8 -9 -15 -20 -15 -11 0 -20 7 -20 15 0 8 -4 15 -10 15 -5 0 -10
-20 -10 -45z"/>
<path d="M2592 373 c3 -43 5 -46 31 -48 31 -1 36 10 7 18 -11 3 -20 10 -20 16
0 6 9 11 20 11 28 0 25 20 -2 21 -17 1 -19 2 -5 6 26 7 20 23 -9 23 -24 0 -25
-2 -22 -47z"/>
<path d="M2670 369 c0 -40 3 -50 12 -41 8 8 17 8 30 1 15 -8 19 -7 17 3 -1 7
2 21 6 32 11 26 -6 50 -39 54 -25 3 -26 2 -26 -49z m48 14 c-5 -25 -28 -28
-28 -4 0 12 6 21 16 21 9 0 14 -7 12 -17z"/>
<path d="M2760 380 c0 -22 1 -43 3 -47 3 -10 47 -10 53 -1 3 4 -4 8 -15 8 -28
0 -37 20 -12 27 28 7 27 23 -1 24 l-23 0 23 9 c29 12 28 20 -3 20 -22 0 -25
-4 -25 -40z"/>
<path d="M2830 329 c0 -5 5 -7 10 -4 6 3 10 8 10 11 0 2 -4 4 -10 4 -5 0 -10
-5 -10 -11z"/>
<path d="M2865 330 c3 -5 8 -10 11 -10 2 0 4 5 4 10 0 6 -5 10 -11 10 -5 0 -7
-4 -4 -10z"/>
<path d="M2900 329 c0 -5 5 -7 10 -4 6 3 10 8 10 11 0 2 -4 4 -10 4 -5 0 -10
-5 -10 -11z"/>
</g>
</svg>
